<svg xmlns="http://www.w3.org/2000/svg" xmlns:xlink="http://www.w3.org/1999/xlink" width="50" height="50"
  viewBox="0 0 50 50">
  <defs>
    <clipPath id="clip-path">
      <rect id="Retângulo_1" data-name="Retângulo 1" width="50" height="50" transform="translate(336.105 347.105)"
        fill="#fff" stroke="#707070" stroke-width="1" />
    </clipPath>
  </defs>
  <g id="Grupo_de_máscara_1" data-name="Grupo de máscara 1" transform="translate(-336.105 -347.105)"
    clip-path="url(#clip-path)">
    <g id="DM-BLACK" transform="translate(336 347.218)">
      <g id="Grupo_1" data-name="Grupo 1" transform="translate(0 0)">
        <path id="Caminho_1" data-name="Caminho 1"
          d="M45.62,27.514c.023.6.057,1.2.045,1.812a4.108,4.108,0,0,1-.249,1.472.229.229,0,0,0,0,.125,14.94,14.94,0,0,0,.963-1.959,22.144,22.144,0,0,0,.929-2.5,9.274,9.274,0,0,0,.43-2.163,4.8,4.8,0,0,0-.057-.8.5.5,0,0,0-.159-.306c-.374-.408-.838-.725-1.223-1.133a3.3,3.3,0,0,1-1.031-2.48c.011-.351.023-.7.034-1.065a3.685,3.685,0,0,0-.238-1.54,1.658,1.658,0,0,1,.544.544A6.6,6.6,0,0,1,46.7,19.767a11.3,11.3,0,0,0,.385,1.6c.215.566.487,1.121.759,1.687a6.9,6.9,0,0,0,.057-1.6,7,7,0,0,0-.634-2.661,2.665,2.665,0,0,1-.227-.985,4.1,4.1,0,0,0-.951-2.628,3.116,3.116,0,0,1-.612-.906.254.254,0,0,1-.011-.2c.317.521.861.725,1.291,1.087a2.9,2.9,0,0,1,.827,1.087,5.662,5.662,0,0,1,.453,2.628c-.011.453-.023.906-.023,1.359a12.207,12.207,0,0,0,.1,1.268,4.366,4.366,0,0,1,0,1.087c-.045.294-.034.578-.068.872a18.021,18.021,0,0,1-.544,2.888,17.865,17.865,0,0,1-.793,2.344,3.134,3.134,0,0,0,.6-.634c.385-.43.43-1.019.747-1.484a2.342,2.342,0,0,0,.306-1.7,10.418,10.418,0,0,1-.091-1.325,4.982,4.982,0,0,1,.476-2.05c.374-.849.838-1.654,1.133-2.537.034-.091,0-.227.147-.294a3.386,3.386,0,0,1,.045.464c0,.317.057.623.068.94.011.521,0,1.042.057,1.563a13.422,13.422,0,0,1,.125,1.9,6.133,6.133,0,0,1-.487,2.141,4.97,4.97,0,0,1-1.053,1.54c-.328.34-.759.566-1.11.883a4.578,4.578,0,0,0-1.178,1.336,23.125,23.125,0,0,1-1.563,2.718,17.659,17.659,0,0,1-1.257,1.654c-.464.521-.974.985-1.461,1.495-.057.057-.1.113-.181.193a5.512,5.512,0,0,0,2.446-1.268,10.728,10.728,0,0,0,1.291-1.574,21.487,21.487,0,0,1,1.586-2.05c.476-.544.951-1.087,1.461-1.586a6.008,6.008,0,0,1,1.8-1.144,6.409,6.409,0,0,1,1.144-.362c-.159.113-.317.215-.464.34a8.741,8.741,0,0,0-1.767,2.254c-.544.974-1.031,1.971-1.654,2.9a5.568,5.568,0,0,1-2.367,2.061,2.781,2.781,0,0,1-.861.181,17.366,17.366,0,0,0-2.152.238,2.7,2.7,0,0,0-1.189.6,18.869,18.869,0,0,1-1.767,1.37A25,25,0,0,1,36.4,39.3a23.512,23.512,0,0,1-4.156,1.552,22.539,22.539,0,0,1-2.424.521c-.6.1-1.212.159-1.823.2a21.411,21.411,0,0,1-2.254.079c-.759-.034-1.518-.068-2.276-.17-.827-.1-1.654-.238-2.458-.419a23,23,0,0,1-3.953-1.28,23.537,23.537,0,0,1-4.179-2.322,18.075,18.075,0,0,1-2.073-1.642c-.374-.351-.77-.668-1.121-1.042a26.643,26.643,0,0,1-2.31-2.741A23.032,23.032,0,0,1,3.75,24.479c-.136-.5-.249-1-.362-1.495a.124.124,0,0,1,0-.091c.011-.057-.045-.147.068-.159.079-.011.1.057.125.136.057.272.113.544.181.815A21.8,21.8,0,0,0,5,27.446a21.634,21.634,0,0,0,2.22,4.009c.4.578.827,1.133,1.268,1.676a23.2,23.2,0,0,0,1.982,2.107,20.42,20.42,0,0,0,2.31,1.88,26.144,26.144,0,0,0,2.9,1.778,23.515,23.515,0,0,0,3.715,1.529,19.647,19.647,0,0,0,2.56.634c.566.1,1.144.17,1.71.249a24.835,24.835,0,0,0,3.432.125,17.656,17.656,0,0,0,2.05-.17,23.063,23.063,0,0,0,2.344-.419A23.357,23.357,0,0,0,35.053,39.7a23.006,23.006,0,0,0,4.394-2.412c.464-.328.883-.725,1.336-1.076a20.124,20.124,0,0,0,2.435-2.276,7.3,7.3,0,0,0,1.518-2.061,9.337,9.337,0,0,0,.68-2.152,2.742,2.742,0,0,0-.815-2.356,2.273,2.273,0,0,1-.612-1.495,12.007,12.007,0,0,1,.476-3.171,2.477,2.477,0,0,0,.125-.759c-.011-.079.034-.125.068-.2a3.385,3.385,0,0,1,.193.634,10.688,10.688,0,0,0,.51,1.167,4.184,4.184,0,0,1,.283,1.586c.011.193,0,.374.011.566a3.406,3.406,0,0,1,0,.68c0,.215-.011.43-.011.634A1.291,1.291,0,0,0,45.62,27.514Z"
          transform="translate(-1.653 6.448)" />
        <path id="Caminho_2" data-name="Caminho 2"
          d="M26.853,2.19c-.294,0-.589,0-.883.011-.838.023-1.665.113-2.492.215a25.085,25.085,0,0,0-3.024.612,22.4,22.4,0,0,0-2.548.849c-.657.26-1.291.544-1.925.849-.725.362-1.427.759-2.107,1.178-.714.442-1.393.929-2.061,1.438-.419.317-.8.668-1.2,1.008-.555.464-1.053,1-1.563,1.518A22.23,22.23,0,0,0,6.9,12.451a24.023,24.023,0,0,0-1.891,3.092,23.426,23.426,0,0,0-1.744,4.451c-.125.442-.215.883-.351,1.314-.045.136-.113.2-.238.17s-.159-.159-.125-.272a27.317,27.317,0,0,1,1.336-4.19,25.32,25.32,0,0,1,1.948-3.726,26.141,26.141,0,0,1,1.8-2.48c.328-.408.691-.781,1.031-1.178a20.358,20.358,0,0,1,1.495-1.472c.521-.476,1.076-.906,1.631-1.336A21.962,21.962,0,0,1,14.236,5.18a24.618,24.618,0,0,1,3-1.484c.827-.34,1.676-.646,2.537-.906.827-.238,1.654-.43,2.5-.589.68-.125,1.359-.215,2.05-.283.453-.034.895-.057,1.348-.091A15.084,15.084,0,0,1,27.566,1.8c.5.023,1.008.057,1.518.113.453.045.906.091,1.348.159.521.068,1.053.17,1.563.283a26.86,26.86,0,0,1,3.262.94,24.644,24.644,0,0,1,3.386,1.54,25.059,25.059,0,0,1,2.231,1.37c.521.362,1.019.747,1.529,1.133a.207.207,0,0,1,.057.294c-.079.113-.17.113-.283.023-.68-.532-1.37-1.042-2.1-1.518a23.577,23.577,0,0,0-3.454-1.857,22.819,22.819,0,0,0-2.582-.974,21.958,21.958,0,0,0-2.831-.691c-.6-.1-1.212-.193-1.823-.272a17.742,17.742,0,0,0-2.2-.136A.57.57,0,0,0,26.853,2.19Z"
          transform="translate(-2.219 -1.785)" />
        <path id="Caminho_3" data-name="Caminho 3"
          d="M28.026,39.615a11.478,11.478,0,0,1-1.654.045c-.566-.011-1.144-.034-1.71-.091a25.723,25.723,0,0,1-4.349-.77,24.265,24.265,0,0,1-2.82-.951c-.68-.283-1.359-.578-2.016-.917a24.445,24.445,0,0,1-2.344-1.382,26.635,26.635,0,0,1-2.469-1.869c-.487-.419-.974-.849-1.416-1.314a24.769,24.769,0,0,1-2.661-3.182A29.224,29.224,0,0,1,4.866,26.4,25.3,25.3,0,0,1,3.5,23.3c-.317-.861-.555-1.733-.793-2.616-.091-.351-.159-.7-.238-1.053a.2.2,0,0,1,.159-.249.193.193,0,0,1,.238.17,15.7,15.7,0,0,0,.362,1.608,23.58,23.58,0,0,0,.917,2.786,22.136,22.136,0,0,0,1,2.174,26.99,26.99,0,0,0,2.174,3.432,26.623,26.623,0,0,0,2.99,3.3,22.785,22.785,0,0,0,2.514,2.016,24.886,24.886,0,0,0,3.805,2.186c.691.317,1.393.6,2.107.861a24.556,24.556,0,0,0,2.8.8,18.2,18.2,0,0,0,1.937.34c.657.079,1.314.136,1.982.181a19.976,19.976,0,0,0,2.469.023,21,21,0,0,0,2.22-.2A24.274,24.274,0,0,0,34.889,37.9q1.07-.374,2.107-.849a24.383,24.383,0,0,0,3.7-2.107,23.546,23.546,0,0,0,1.88-1.438,4.85,4.85,0,0,0,.374-.328.193.193,0,0,1,.294,0c.113.1.068.2-.034.283-.453.385-.906.759-1.382,1.121a26.467,26.467,0,0,1-2.3,1.563,23.063,23.063,0,0,1-2.628,1.359,24.135,24.135,0,0,1-2.469.951,23.514,23.514,0,0,1-2.888.747c-.646.125-1.291.227-1.948.294C29.1,39.547,28.559,39.581,28.026,39.615Z"
          transform="translate(-2.271 9.999)" />
        <path id="Caminho_4" data-name="Caminho 4"
          d="M26.288,2.948c-.453,0-.8-.011-1.144,0-.646.034-1.28.1-1.914.17a23,23,0,0,0-3.047.6,21.694,21.694,0,0,0-2.5.849c-.68.283-1.359.578-2.016.917a24.257,24.257,0,0,0-3.33,2.107c-.555.419-1.087.872-1.62,1.336s-1.042.985-1.54,1.506a21.671,21.671,0,0,0-1.925,2.39A21.834,21.834,0,0,0,5.369,16a21.239,21.239,0,0,0-1.45,3.873c-.091.351-.193.7-.26,1.065-.023.091-.068.17-.147.159-.1-.023-.091-.125-.068-.2a28.415,28.415,0,0,1,.8-2.752,24.644,24.644,0,0,1,1.54-3.386A22.472,22.472,0,0,1,7.68,11.839,19.069,19.069,0,0,1,9.073,10.2c.294-.317.578-.634.895-.929A28.208,28.208,0,0,1,12.731,6.98a24.587,24.587,0,0,1,2.82-1.71,23.808,23.808,0,0,1,2.865-1.246,23.027,23.027,0,0,1,3.669-.963c.544-.091,1.087-.159,1.631-.227a20.918,20.918,0,0,1,3.148-.125q1.189.051,2.378.2a25.047,25.047,0,0,1,3.024.6,21.117,21.117,0,0,1,2.435.8,24.664,24.664,0,0,1,2.48,1.155,22.072,22.072,0,0,1,2.854,1.812c.238.181.476.374.725.555.068.045.136.125.079.193-.079.1-.17.011-.227-.034-.26-.215-.532-.419-.8-.623a21.482,21.482,0,0,0-2.1-1.37c-.532-.306-1.076-.6-1.631-.861A23.091,23.091,0,0,0,31.611,3.56a22.26,22.26,0,0,0-2.3-.442c-.521-.068-1.042-.113-1.552-.159C27.25,2.937,26.718,2.982,26.288,2.948Z"
          transform="translate(-1.62 -1.173)" />
        <path id="Caminho_5" data-name="Caminho 5"
          d="M3.219,17.73a.883.883,0,1,1,.023-1.767.9.9,0,0,1,.895.906A.91.91,0,0,1,3.219,17.73Z"
          transform="translate(-2.346 7.716)" />
      </g>
      <text id="DM" transform="translate(6.332 28.438)" font-size="13" font-family="MongolianBaiti, Mongolian Baiti">
        <tspan x="0" y="0">DM</tspan>
      </text>
      <rect id="Retângulo_2" data-name="Retângulo 2" width="10.125" height="5.312"
        transform="translate(28.099 23.815)" />
      <text id="Tec." transform="translate(28.982 28.113)" fill="#fff" font-size="5" font-family="SegoeUI, Segoe UI">
        <tspan x="0" y="0">Tec.</tspan>
      </text>
      <rect id="Retângulo_3" data-name="Retângulo 3" width="1.416" height="0.442" transform="translate(38.881 31.844)"
        fill="none" />
    </g>
  </g>
</svg>
